<?xml version="1.0" encoding="UTF-8"?>
<!-- ============================================================
     PLACEHOLDER IMAGE — HISTORY / ARCHIVE
     Replace this file (keep the same filename) with a real
     historical photo, e.g. a scanned archive picture.
     ============================================================ -->
<svg xmlns="http://www.w3.org/2000/svg" viewBox="0 0 800 1000">
  <defs>
    <linearGradient id="bg" x1="0" y1="0" x2="0" y2="1">
      <stop offset="0" stop-color="#071120"/>
      <stop offset="1" stop-color="#0b1e33"/>
    </linearGradient>
    <linearGradient id="glow" x1="0" y1="0" x2="0" y2="1">
      <stop offset="0" stop-color="#59d8ff"/>
      <stop offset="1" stop-color="#1f7fd4"/>
    </linearGradient>
  </defs>
  <rect width="800" height="1000" fill="url(#bg)"/>
  <g stroke="#12395e" stroke-width="1" opacity="0.6">
    <path d="M0 200 H800 M0 400 H800 M0 600 H800 M0 800 H800"/>
    <path d="M160 0 V1000 M320 0 V1000 M480 0 V1000 M640 0 V1000"/>
  </g>
  <g fill="none" stroke="url(#glow)" stroke-width="10" stroke-linecap="round" opacity="0.9">
    <!-- open book -->
    <path d="M230 620 V440 Q315 400 400 440 Q485 400 570 440 V620 Q485 580 400 620 Q315 580 230 620 Z" stroke-linejoin="round"/>
    <path d="M400 440 V620"/>
    <!-- clock hands above -->
    <circle cx="400" cy="330" r="55"/>
    <path d="M400 330 V295 M400 330 L428 344"/>
  </g>
  <circle cx="400" cy="480" r="200" fill="none" stroke="#59d8ff" stroke-width="2" opacity="0.35"/>
  <text x="400" y="840" text-anchor="middle" font-family="Segoe UI, Arial, sans-serif" font-size="34" fill="#7fc9ee" letter-spacing="6">HISTORY PHOTO</text>
  <text x="400" y="885" text-anchor="middle" font-family="Segoe UI, Arial, sans-serif" font-size="22" fill="#3f6f96" letter-spacing="3">REPLACE THIS IMAGE</text>
</svg>
