<?xml version="1.0" encoding="UTF-8"?>
<!-- ============================================================
     PLACEHOLDER IMAGE — BRANCH / LOCATION
     Replace this file (keep the same filename) with a real photo
     of the branch, e.g. a JPG/PNG of the church building.
     ============================================================ -->
<svg xmlns="http://www.w3.org/2000/svg" viewBox="0 0 800 1000">
  <defs>
    <linearGradient id="bg" x1="0" y1="0" x2="0" y2="1">
      <stop offset="0" stop-color="#071120"/>
      <stop offset="1" stop-color="#0b1e33"/>
    </linearGradient>
    <linearGradient id="glow" x1="0" y1="0" x2="0" y2="1">
      <stop offset="0" stop-color="#59d8ff"/>
      <stop offset="1" stop-color="#1f7fd4"/>
    </linearGradient>
  </defs>
  <rect width="800" height="1000" fill="url(#bg)"/>
  <g stroke="#12395e" stroke-width="1" opacity="0.6">
    <path d="M0 200 H800 M0 400 H800 M0 600 H800 M0 800 H800"/>
    <path d="M160 0 V1000 M320 0 V1000 M480 0 V1000 M640 0 V1000"/>
  </g>
  <g fill="none" stroke="url(#glow)" stroke-width="10" stroke-linejoin="round" stroke-linecap="round" opacity="0.9">
    <!-- simple church building outline -->
    <path d="M250 700 V520 L400 420 L550 520 V700 Z"/>
    <path d="M400 420 V330"/>
    <path d="M370 355 H430"/>
    <rect x="370" y="600" width="60" height="100" rx="6"/>
    <path d="M180 700 H620"/>
  </g>
  <circle cx="400" cy="520" r="180" fill="none" stroke="#59d8ff" stroke-width="2" opacity="0.35"/>
  <text x="400" y="840" text-anchor="middle" font-family="Segoe UI, Arial, sans-serif" font-size="34" fill="#7fc9ee" letter-spacing="6">BRANCH PHOTO</text>
  <text x="400" y="885" text-anchor="middle" font-family="Segoe UI, Arial, sans-serif" font-size="22" fill="#3f6f96" letter-spacing="3">REPLACE THIS IMAGE</text>
</svg>
